<svg width="23" height="23" viewBox="0 0 23 23" fill="none" xmlns="http://www.w3.org/2000/svg">
<path fill-rule="evenodd" clip-rule="evenodd" d="M14.4776 15.8781C12.6978 17.3003 10.441 17.987 8.17066 17.7971C5.90036 17.6072 3.78893 16.5552 2.27004 14.8571C0.75115 13.1589 -0.0599068 10.9436 0.00345103 8.66617C0.0668089 6.38869 0.999772 4.22192 2.61072 2.61087C4.22167 0.999829 6.38832 0.0668127 8.66567 0.00345122C10.943 -0.0599103 13.1582 0.751193 14.8562 2.27017C16.5542 3.78915 17.6062 5.9007 17.7961 8.17113C17.986 10.4416 17.2993 12.6985 15.8772 14.4785L22.6848 21.2852C22.7821 21.3758 22.8602 21.4852 22.9143 21.6066C22.9684 21.7281 22.9975 21.8593 22.9998 21.9922C23.0022 22.1252 22.9777 22.2573 22.9279 22.3806C22.8781 22.5039 22.804 22.6159 22.71 22.7099C22.6159 22.804 22.5039 22.8781 22.3806 22.9279C22.2573 22.9777 22.1252 23.0022 21.9923 22.9998C21.8593 22.9975 21.7282 22.9684 21.6067 22.9143C21.4853 22.8601 21.3759 22.7821 21.2853 22.6848L14.4776 15.8781ZM4.01403 13.8156C3.04496 12.8464 2.38494 11.6116 2.11739 10.2674C1.84984 8.92315 1.98676 7.52976 2.51085 6.26331C3.03494 4.99686 3.92267 3.9142 5.06186 3.15217C6.20105 2.39013 7.54056 1.98292 8.9111 1.982C10.2816 1.98108 11.6217 2.38648 12.7619 3.14698C13.9021 3.90749 14.7913 4.98895 15.3171 6.25469C15.8429 7.52043 15.9817 8.91364 15.7159 10.2583C15.4502 11.6029 14.7918 12.8385 13.8241 13.809L13.8175 13.8156L13.8109 13.8209C12.5105 15.1184 10.7483 15.8466 8.91136 15.8456C7.07444 15.8446 5.31303 15.1145 4.01403 13.8156Z" fill="#0D1019"/>
</svg>
